<svg width="15" height="15" viewBox="0 0 15 15" fill="none" xmlns="http://www.w3.org/2000/svg">
<path d="M1.25 7.71869H4.87499C5.83124 7.71869 6.4875 8.4437 6.4875 9.3312V11.3437C6.4875 12.2312 5.83124 12.9562 4.87499 12.9562H2.86251C1.97501 12.9562 1.25 12.2312 1.25 11.3437V7.71869" stroke="white" stroke-width="1.5" stroke-linecap="round" stroke-linejoin="round"/>
<path d="M1.25 7.7187C1.25 3.93745 1.95627 3.31249 4.08127 2.04999" stroke="white" stroke-width="1.5" stroke-linecap="round" stroke-linejoin="round"/>
<path d="M8.51874 7.71869H12.1437C13.1 7.71869 13.7562 8.4437 13.7562 9.3312V11.3437C13.7562 12.2312 13.1 12.9562 12.1437 12.9562H10.1312C9.24375 12.9562 8.51874 12.2312 8.51874 11.3437V7.71869" stroke="white" stroke-width="1.5" stroke-linecap="round" stroke-linejoin="round"/>
<path d="M8.51874 7.7187C8.51874 3.93745 9.22497 3.31249 11.35 2.04999" stroke="white" stroke-width="1.5" stroke-linecap="round" stroke-linejoin="round"/>
</svg>
