<svg width="15" height="15" viewBox="0 0 15 15" fill="none" xmlns="http://www.w3.org/2000/svg">
<path d="M13.7501 7.28127H10.1251C9.16882 7.28127 8.51257 6.55625 8.51257 5.66875V3.65623C8.51257 2.76873 9.16882 2.04376 10.1251 2.04376H12.1376C13.0251 2.04376 13.7501 2.76873 13.7501 3.65623V7.28127Z" stroke="white" stroke-width="1.5" stroke-linecap="round" stroke-linejoin="round"/>
<path d="M13.7501 7.28125C13.7501 11.0625 13.0438 11.6875 10.9188 12.95" stroke="white" stroke-width="1.5" stroke-linecap="round" stroke-linejoin="round"/>
<path d="M6.48127 7.28127H2.85627C1.90002 7.28127 1.24377 6.55625 1.24377 5.66875V3.65623C1.24377 2.76873 1.90002 2.04376 2.85627 2.04376H4.87502C5.76252 2.04376 6.48752 2.76873 6.48752 3.65623V7.28127" stroke="white" stroke-width="1.5" stroke-linecap="round" stroke-linejoin="round"/>
<path d="M6.48127 7.28125C6.48127 11.0625 5.77502 11.6875 3.65002 12.95" stroke="white" stroke-width="1.5" stroke-linecap="round" stroke-linejoin="round"/>
</svg>
